<mxfile host="app.diagrams.net" modified="2024-08-05T04:11:35.232Z" agent="Mozilla/5.0 (Windows NT 10.0; Win64; x64) AppleWebKit/537.36 (KHTML, like Gecko) Chrome/127.0.0.0 Safari/537.36 Edg/127.0.0.0" etag="87mNZcl3STRPv2lqgibI" version="24.6.4" type="github">
  <diagram name="Page-1" id="1NeVCJkPugC7qRm4A9Gu">
    <mxGraphModel dx="746" dy="503" grid="1" gridSize="10" guides="1" tooltips="1" connect="1" arrows="1" fold="1" page="1" pageScale="1" pageWidth="827" pageHeight="1169" math="0" shadow="0">
      <root>
        <mxCell id="0" />
        <mxCell id="1" parent="0" />
      </root>
    </mxGraphModel>
  </diagram>
</mxfile>
